<?xml version="1.0" standalone="no"?>
<!DOCTYPE svg PUBLIC "-//W3C//DTD SVG 20010904//EN"
 "http://www.w3.org/TR/2001/REC-SVG-20010904/DTD/svg10.dtd">
<svg version="1.0" xmlns="http://www.w3.org/2000/svg"
 width="511.000000pt" height="500.000000pt" viewBox="0 0 511.000000 500.000000"
 preserveAspectRatio="xMidYMid meet">

<g transform="translate(0.000000,500.000000) scale(0.100000,-0.100000)"
fill="#000000" stroke="none">
<path d="M2307 4905 c-39 -87 -28 -186 28 -269 l25 -37 -57 8 c-106 15 -232 8
-313 -16 -86 -27 -191 -77 -270 -131 -186 -126 -284 -174 -398 -196 -79 -15
-103 -13 -183 12 -57 18 -84 46 -113 118 l-23 56 -13 -28 c-18 -40 -24 -143
-10 -186 6 -20 23 -49 36 -65 l24 -29 -33 -21 c-41 -25 -111 -99 -156 -164
-48 -71 -146 -280 -176 -377 -55 -180 -56 -181 -117 -230 -89 -72 -140 -93
-235 -98 -75 -4 -86 -2 -128 23 -25 14 -51 37 -57 51 -27 58 -38 8 -12 -54 32
-77 103 -126 207 -143 34 -6 63 -12 65 -14 2 -2 -32 -37 -76 -79 -90 -86 -132
-158 -162 -276 -10 -41 -17 -76 -16 -77 2 -2 17 20 36 48 29 45 138 144 148
135 2 -2 -2 -40 -9 -84 -25 -163 38 -346 170 -488 24 -26 55 -75 69 -108 41
-95 85 -166 158 -252 97 -116 119 -167 118 -279 -1 -58 -7 -102 -17 -125 -17
-40 -67 -90 -112 -113 -24 -13 -26 -16 -10 -17 11 0 29 6 40 13 11 7 41 21 67
31 56 21 90 57 113 123 34 96 30 92 53 48 20 -40 82 -104 131 -136 19 -12 27
-30 37 -90 15 -86 18 -169 5 -169 -5 0 -64 18 -132 40 -166 55 -456 129 -527
135 -49 4 -46 3 23 -10 44 -8 91 -19 105 -24 14 -6 41 -13 60 -16 97 -18 403
-115 575 -182 327 -127 470 -202 678 -356 85 -62 82 -53 -5 18 l-37 30 37 59
37 59 6 -31 c6 -31 46 -102 57 -102 4 0 5 38 4 84 -6 128 8 175 79 269 34 45
63 87 66 94 10 25 20 13 42 -46 32 -87 50 -106 103 -105 40 1 165 50 155 61
-3 2 -37 -9 -75 -26 -39 -17 -78 -31 -87 -31 -27 0 -61 43 -80 101 -30 93 -73
164 -120 198 -51 36 -98 103 -121 173 l-16 50 41 42 41 41 0 -37 c0 -20 5 -40
10 -43 6 -4 10 9 10 32 0 45 18 113 29 113 5 0 11 -26 14 -58 10 -91 26 -114
57 -77 17 21 30 9 31 -28 l1 -32 10 35 c5 19 14 51 19 71 26 103 127 120 169
27 l19 -42 -35 -38 c-31 -35 -41 -64 -34 -108 1 -8 20 -52 42 -98 38 -76 40
-83 25 -100 -12 -13 -27 -17 -52 -14 -19 2 -35 9 -35 14 0 6 -6 8 -14 5 -8 -3
-20 1 -26 9 -7 8 -18 14 -24 14 -23 -1 40 -39 81 -49 54 -14 59 -14 77 5 25
24 19 62 -19 130 -44 79 -48 142 -10 179 13 14 29 25 34 25 6 0 25 -28 42 -61
17 -34 34 -58 38 -53 5 5 5 67 0 138 -8 125 -5 168 8 116 4 -14 29 -70 57
-124 39 -77 69 -119 134 -187 99 -104 147 -130 122 -65 -12 32 -6 30 56 -21
54 -43 67 -43 48 2 -22 55 -17 143 17 267 17 62 34 122 39 133 4 11 14 49 22
85 l14 65 18 -74 c19 -75 75 -200 100 -220 11 -9 11 -1 3 46 -10 57 7 298 22
320 3 5 29 26 56 47 72 55 209 189 267 263 27 34 52 63 54 63 3 0 22 -9 44
-20 l39 -20 -15 -52 c-9 -29 -34 -97 -56 -151 l-40 -97 -47 -2 c-25 0 -57 0
-70 1 -21 2 -23 0 -12 -12 9 -12 9 -16 -1 -19 -7 -3 7 -8 31 -12 57 -9 63 -13
51 -37 -14 -24 0 -24 32 0 22 18 32 19 104 10 105 -13 107 -14 99 -46 -5 -21
-1 -31 16 -44 25 -18 20 -55 -6 -45 -15 5 -17 0 -29 -71 -7 -45 15 -47 35 -3
9 20 24 68 33 106 9 38 19 74 21 80 2 7 19 9 49 4 26 -4 49 -3 52 2 11 18 24
7 24 -21 0 -46 -48 -217 -76 -273 -14 -27 -24 -52 -22 -54 2 -2 27 14 55 36
52 39 63 41 63 9 0 -20 32 -96 52 -122 11 -15 13 -11 14 36 1 52 20 127 31
127 3 0 41 -37 84 -83 84 -90 159 -152 227 -187 23 -12 44 -25 47 -29 12 -20
-74 -122 -200 -236 -16 -15 -7 -10 20 10 66 51 141 130 172 182 29 50 28 53
-61 98 -70 36 -241 198 -251 238 -6 22 -1 33 28 62 41 41 47 42 70 15 9 -11
26 -20 36 -20 18 0 19 2 4 31 -20 40 -11 100 25 161 31 54 204 297 212 297 3
0 20 -31 38 -69 18 -39 36 -70 40 -70 4 0 7 42 8 93 0 65 6 108 20 147 22 63
112 220 126 220 5 0 18 -21 30 -47 17 -38 18 -50 9 -66 -24 -38 13 -12 41 29
79 115 50 363 -67 579 -24 44 -55 95 -70 114 -17 24 -25 48 -25 75 0 22 -10
71 -21 108 -12 38 -20 70 -18 71 2 2 24 16 47 32 74 49 123 139 121 219 l-2
41 -7 -44 c-5 -31 -16 -52 -35 -69 -25 -21 -36 -24 -81 -19 -124 13 -253 117
-338 272 -27 50 -66 115 -87 146 -48 71 -182 197 -242 227 -56 28 -147 44
-201 35 -38 -6 -39 -5 -32 18 36 122 -1 325 -74 409 l-30 35 7 -30 c19 -75
-12 -186 -65 -240 l-36 -36 -20 43 c-28 59 -112 140 -173 165 l-51 21 29 -47
c16 -26 32 -65 36 -86 l6 -39 -31 23 c-46 32 -114 60 -174 71 -42 8 -82 6
-183 -10 -156 -24 -231 -25 -308 -5 -85 22 -134 51 -199 115 -67 67 -78 91
-87 180 l-7 65 -17 -40z m1359 -2297 c-3 -13 -10 -60 -17 -105 -14 -89 -12
-87 -76 -68 -7 3 5 33 33 82 24 43 47 86 50 95 8 26 15 22 10 -4z m163 -207
c1 -22 -2 -23 -36 -16 -21 4 -39 8 -39 8 -1 1 10 38 25 82 l26 81 12 -66 c6
-36 12 -76 12 -89z m-18 -81 l46 -12 32 -97 c27 -81 31 -106 25 -149 -6 -46
-9 -52 -30 -52 -13 0 -33 9 -44 20 -16 16 -39 20 -137 25 -65 4 -124 8 -131
11 -9 2 -1 22 26 61 58 85 71 95 128 91 l49 -3 -2 -35 -2 -35 15 33 c8 17 19
32 25 32 5 0 7 5 4 10 -3 6 -30 10 -58 10 -77 0 -83 8 -51 64 18 32 31 45 43
42 9 -2 37 -9 62 -16z m-1436 -396 c8 -44 15 -84 15 -88 0 -4 -18 15 -40 42
l-39 50 19 69 c11 37 21 70 22 73 0 3 3 -11 5 -30 2 -19 10 -71 18 -116z
m1371 19 c-10 -10 -19 5 -10 18 6 11 8 11 12 0 2 -7 1 -15 -2 -18z m-1406 -83
l21 -30 -40 0 c-44 0 -47 4 -31 45 11 30 20 27 50 -15z"/>
<path d="M130 1430 c74 -4 168 -13 208 -20 40 -6 76 -10 79 -7 14 15 -193 37
-322 35 l-100 -1 135 -7z"/>
<path d="M2504 1149 c3 -13 14 -55 23 -94 18 -82 39 -114 28 -45 -10 68 -34
148 -47 156 -8 5 -9 0 -4 -17z"/>
<path d="M4106 1128 c-8 -13 -17 -36 -20 -53 -5 -24 -3 -22 9 9 8 21 20 45 26
52 6 8 9 14 5 14 -3 0 -12 -10 -20 -22z"/>
<path d="M4072 1010 c0 -19 2 -27 5 -17 2 9 2 25 0 35 -3 9 -5 1 -5 -18z"/>
<path d="M4081 954 c0 -11 3 -14 6 -6 3 7 2 16 -1 19 -3 4 -6 -2 -5 -13z"/>
<path d="M4095 906 c6 -26 0 -35 -55 -88 -34 -32 -57 -58 -52 -58 14 0 122
117 122 132 0 7 -5 20 -11 28 -8 11 -9 8 -4 -14z"/>
<path d="M3920 741 c5 -11 10 -39 10 -63 0 -38 -4 -47 -42 -80 l-43 -36 -5
-151 c-6 -142 -7 -152 -30 -179 -14 -15 -11 -13 8 5 l32 33 0 129 c0 72 5 141
11 154 6 13 26 32 45 42 36 19 38 27 34 104 -1 28 3 47 11 52 10 6 5 9 -14 9
-24 0 -26 -2 -17 -19z"/>
<path d="M2020 736 c0 -2 8 -10 18 -17 15 -13 16 -12 3 4 -13 16 -21 21 -21
13z"/>
<path d="M2060 701 c0 -5 6 -14 14 -18 50 -28 279 -271 367 -388 70 -93 179
-267 179 -285 0 -6 5 -10 10 -10 15 0 13 7 -25 71 -19 33 -35 64 -35 69 0 4
22 22 49 38 26 17 69 57 95 89 25 33 64 70 86 82 39 22 43 22 103 8 88 -21
184 -45 242 -62 85 -23 111 -27 100 -16 -6 5 -37 17 -70 25 -33 8 -120 31
-194 50 -129 34 -134 34 -173 19 -27 -11 -58 -38 -93 -81 -56 -67 -67 -77
-127 -111 l-38 -21 -50 74 c-27 41 -73 103 -102 138 -111 134 -338 355 -338
329z"/>
<path d="M1499 369 c-10 -6 -4 -9 19 -9 17 0 32 2 32 4 0 9 -39 13 -51 5z"/>
<path d="M1148 363 c7 -3 16 -2 19 1 4 3 -2 6 -13 5 -11 0 -14 -3 -6 -6z"/>
<path d="M1575 360 c3 -5 11 -10 16 -10 6 0 7 5 4 10 -3 6 -11 10 -16 10 -6 0
-7 -4 -4 -10z"/>
<path d="M994 346 c-22 -7 -69 -28 -105 -46 -35 -18 -76 -39 -91 -47 -15 -8
-30 -19 -34 -24 -3 -6 41 15 99 46 61 32 132 62 169 70 37 8 51 13 33 14 -16
0 -48 -6 -71 -13z"/>
<path d="M1865 314 c116 -42 315 -157 315 -182 0 -15 1 -15 105 -38 44 -9 84
-21 89 -26 13 -11 39 -10 31 1 -3 5 -30 17 -61 26 -30 9 -53 19 -50 24 3 4 -7
6 -23 3 -20 -3 -38 5 -70 32 -24 20 -47 36 -52 36 -4 0 -6 8 -3 18 5 14 4 15
-5 2 -8 -10 -13 -12 -18 -4 -5 6 -19 15 -33 19 -13 4 -30 13 -37 21 -15 15
-192 84 -213 83 -8 0 3 -7 25 -15z"/>
<path d="M3378 238 c6 -6 18 -8 28 -6 14 3 12 5 -9 10 -19 3 -25 2 -19 -4z"/>
<path d="M3448 223 c6 -2 18 -2 25 0 6 3 1 5 -13 5 -14 0 -19 -2 -12 -5z"/>
<path d="M662 164 c-46 -31 -80 -59 -77 -62 3 -3 15 3 28 14 12 11 48 37 80
57 49 32 66 47 54 47 -2 0 -40 -25 -85 -56z"/>
<path d="M3668 183 c18 -2 45 -2 60 0 15 2 0 4 -33 4 -33 0 -45 -2 -27 -4z"/>
<path d="M507 52 c-31 -25 -55 -47 -52 -50 2 -2 28 15 57 39 29 24 55 44 57
46 2 2 2 5 0 7 -2 1 -30 -17 -62 -42z"/>
<path d="M1080 56 c-38 -25 -68 -56 -54 -56 5 1 29 19 54 40 51 45 51 49 0 16z"/>
<path d="M2425 50 c3 -5 8 -10 11 -10 2 0 4 5 4 10 0 6 -5 10 -11 10 -5 0 -7
-4 -4 -10z"/>
<path d="M2450 45 c0 -6 50 -31 80 -39 14 -4 3 5 -25 18 -54 28 -55 28 -55 21z"/>
</g>
</svg>
