<svg xmlns="http://www.w3.org/2000/svg" viewBox="0 0 153.59 153.38"><path d="M62.34 1.14C86.08-3 112 4.1 129.7 20.57A74.42 74.42 0 0 1 144.14 39c8.3 15 10.94 32 8.67 48.85-2.41-7-3.19-14.55-5.9-21.46-3.87-9.85-10.46-18.29-17.39-26.2a123.94 123.94 0 0 0-23.17-20.82c-15-10.25-33.49-15-51.66-15.3a17.74 17.74 0 0 1 7.65-2.93z" fill="#f1743c"/><path d="M42.43 10.15a19.88 19.88 0 0 1 8.27-2.53c8.91-.51 17.78 1 26.41 3.11 10 2.55 20 6 28.57 11.81 6.38 4.29 12.1 10.32 13.63 18.12-3.44-1.92-6.63-4.26-10.21-5.89a87.17 87.17 0 0 0-26.78-7.07 81 81 0 0 0-27 .43c-16.7 2.36-32.81 9.77-44.94 21.59-2.91 3-5.3 6.36-8 9.47a38.78 38.78 0 0 1 4.46-14c7.27-15.42 20.62-27.32 35.63-35z" fill="#f8ca80"/><path d="M62.7 29.8A72.38 72.38 0 0 1 89.1 31a49.21 49.21 0 0 1-9.92 3.52C63.32 39.13 48.75 49 39.73 63c-10 15-13.38 33.3-14 51 .09 6.85 1.21 13.63 1.58 20.45a31.79 31.79 0 0 1-4.71-3.53C6.33 114.84-2.24 91.14.51 68.35c.47-2.28 2-4.12 3.4-5.89C18.7 45 39.64 31.94 62.7 29.8z" fill="#67bf87"/><path d="M120.21 41.33a66.39 66.39 0 0 1 13.2 12.3c8.57 9.83 16.09 21.6 17.35 34.87 1.25 12.66-5 24.48-12.32 34.34a77.07 77.07 0 0 1-63.67 30.49C64 152.24 54 146.65 46.54 139a25.79 25.79 0 0 1-6.78-12.38c6.47-.31 13.63-.42 19-4.59 3.68-2.7 3.31-7.81 2.48-11.78-3-9.23-11-15.55-14.84-24.34-2.19-4.66-3.6-10.34-1.2-15.21 2.62-5.7 8.6-8.74 14.22-10.76 7.75-2.58 15.91-3.72 24-4.41 10.74-.13 21.51-.47 32.25.08-10.29 5-21.49 8.82-30 16.77-3.41 3.2-7 7.19-6.77 12.18-.25 4.59 2.82 8.37 5.64 11.63 8.49 10 19.24 17.88 27.67 28 9.95-6.36 19.13-15 23-26.45 4.34-12 2-25.43-3.2-36.78-3-7.07-7.75-13.13-11.79-19.6z" fill="#4fc2e4"/></svg>